<?xml version="1.0" encoding="UTF-8" standalone="no"?><svg xmlns="http://www.w3.org/2000/svg" xmlns:xlink="http://www.w3.org/1999/xlink" height="788" version="1.1" width="2148"><defs/><g><g><rect fill="#ffffff" height="360" stroke="none" transform="matrix(1 0 0 1 -134 -302)" width="384" x="968" y="312"/></g><g><path d=" M 834 10 L 1218 10 L 1218 370 L 834 370 L 834 10 Z Z" fill="none" paint-order="fill stroke markers" stroke="#000000" stroke-dasharray="" stroke-miterlimit="10"/></g><g><rect fill="#ffffff" height="360" stroke="none" transform="matrix(1 0 0 1 -134 -302)" width="584" x="1376" y="312"/></g><g><path d=" M 1242 10 L 1826 10 L 1826 370 L 1242 370 L 1242 10 Z Z" fill="none" paint-order="fill stroke markers" stroke="#000000" stroke-dasharray="" stroke-miterlimit="10"/></g><g><rect fill="#ffffff" height="360" stroke="none" transform="matrix(1 0 0 1 -134 -302)" width="296" x="1976" y="312"/></g><g><path d=" M 1842 10 L 2138 10 L 2138 370 L 1842 370 L 1842 10 Z Z" fill="none" paint-order="fill stroke markers" stroke="#000000" stroke-dasharray="" stroke-miterlimit="10"/></g><g><rect fill="#ffffff" height="360" stroke="none" transform="matrix(1 0 0 1 -134 -302)" width="800" x="144" y="312"/></g><g><path d=" M 10 10 L 810 10 L 810 370 L 10 370 L 10 10 Z Z" fill="none" paint-order="fill stroke markers" stroke="#000000" stroke-dasharray="" stroke-miterlimit="10"/></g><g><rect fill="#ffffff" height="240" stroke="none" transform="matrix(1 0 0 1 -134 -302)" width="520" x="1080" y="840"/></g><g><path d=" M 946 538 L 1466 538 L 1466 778 L 946 778 L 946 538 Z Z" fill="none" paint-order="fill stroke markers" stroke="#000000" stroke-dasharray="" stroke-miterlimit="10"/></g><g><rect fill="#C0C0C0" fill-opacity="0.2" height="58" stroke="none" transform="matrix(1 0 0 1 -134 -302)" width="232" x="1559" y="343"/></g><g><rect fill="#ffffff" height="58" stroke="none" transform="matrix(1 0 0 1 -134 -302)" width="232" x="1552" y="336"/></g><g><path d=" M 1418 34 L 1650 34 L 1650 92 L 1418 92 L 1418 34 Z Z" fill="none" paint-order="fill stroke markers" stroke="#000000" stroke-dasharray="" stroke-miterlimit="10"/></g><g><path d=" M 1418 59 L 1650 59" fill="none" paint-order="fill stroke markers" stroke="#000000" stroke-dasharray="" stroke-miterlimit="10"/></g><g><path d=" M 1418 69 L 1650 69" fill="none" paint-order="fill stroke markers" stroke="#000000" stroke-dasharray="" stroke-miterlimit="10"/></g><g><g><path fill="none" stroke="none"/><text dominant-baseline="central" fill="#000000" font-family="Arial" font-size="13px" font-style="italic" font-weight="bold" stroke="none" text-anchor="middle" text-decoration="undefined" transform="matrix(1 0 0 1 -134 -302)" x="1668.5" y="349.5">MazeGenerator</text></g></g><g><g><path fill="none" stroke="none"/><text dominant-baseline="central" fill="#000000" font-family="Arial" font-size="13px" font-style="italic" font-weight="normal" stroke="none" text-anchor="start" text-decoration="undefined" transform="matrix(1 0 0 1 -134 -302)" x="1557" y="382.5">+generate(config)</text><path d=" M 1423 87 L 1525.2607421875 87" fill="none" paint-order="fill stroke markers" stroke="#000000" stroke-dasharray="" stroke-miterlimit="10"/></g></g><g><rect fill="#C0C0C0" fill-opacity="0.2" height="161" stroke="none" transform="matrix(1 0 0 1 -134 -302)" width="213.42333984375" x="655" y="479"/></g><g><rect fill="#ffffff" height="161" stroke="none" transform="matrix(1 0 0 1 -134 -302)" width="213.42333984375" x="648" y="472"/></g><g><path d=" M 514 170 L 727.42333984375 170 L 727.42333984375 331 L 514 331 L 514 170 Z Z" fill="none" paint-order="fill stroke markers" stroke="#000000" stroke-dasharray="" stroke-miterlimit="10"/></g><g><path d=" M 514 195 L 727.42333984375 195" fill="none" paint-order="fill stroke markers" stroke="#000000" stroke-dasharray="" stroke-miterlimit="10"/></g><g><path d=" M 514 233 L 727.42333984375 233" fill="none" paint-order="fill stroke markers" stroke="#000000" stroke-dasharray="" stroke-miterlimit="10"/></g><g><g><path fill="none" stroke="none"/><text dominant-baseline="central" fill="#000000" font-family="Arial" font-size="13px" font-style="normal" font-weight="bold" stroke="none" text-anchor="middle" text-decoration="undefined" transform="matrix(1 0 0 1 -134 -302)" x="755.211669921875" y="485.5">Maze</text></g></g><g><g><path fill="none" stroke="none"/><text dominant-baseline="central" fill="#000000" font-family="Arial" font-size="13px" font-style="normal" font-weight="normal" stroke="none" text-anchor="start" text-decoration="undefined" transform="matrix(1 0 0 1 -134 -302)" x="653" y="508.5">+walls</text></g></g><g><g><path fill="none" stroke="none"/><text dominant-baseline="central" fill="#000000" font-family="Arial" font-size="13px" font-style="normal" font-weight="normal" stroke="none" text-anchor="start" text-decoration="undefined" transform="matrix(1 0 0 1 -134 -302)" x="653" y="523.5">+config</text></g></g><g><g><path fill="none" stroke="none"/><text dominant-baseline="central" fill="#000000" font-family="Arial" font-size="13px" font-style="normal" font-weight="normal" stroke="none" text-anchor="start" text-decoration="undefined" transform="matrix(1 0 0 1 -134 -302)" x="653" y="546.5">+is_correct()</text></g></g><g><g><path fill="none" stroke="none"/><text dominant-baseline="central" fill="#000000" font-family="Arial" font-size="13px" font-style="normal" font-weight="normal" stroke="none" text-anchor="start" text-decoration="undefined" transform="matrix(1 0 0 1 -134 -302)" x="653" y="561.5">+get_walls_count()</text></g></g><g><g><path fill="none" stroke="none"/><text dominant-baseline="central" fill="#000000" font-family="Arial" font-size="13px" font-style="normal" font-weight="normal" stroke="none" text-anchor="start" text-decoration="undefined" transform="matrix(1 0 0 1 -134 -302)" x="653" y="576.5">+get_cells_count()</text></g></g><g><g><path fill="none" stroke="none"/><text dominant-baseline="central" fill="#000000" font-family="Arial" font-size="13px" font-style="normal" font-weight="normal" stroke="none" text-anchor="start" text-decoration="undefined" transform="matrix(1 0 0 1 -134 -302)" x="653" y="591.5">+get_wall_index(position, direction)</text></g></g><g><g><path fill="none" stroke="none"/><text dominant-baseline="central" fill="#000000" font-family="Arial" font-size="13px" font-style="normal" font-weight="normal" stroke="none" text-anchor="start" text-decoration="undefined" transform="matrix(1 0 0 1 -134 -302)" x="653" y="606.5">+has_wall(position, direction)</text></g></g><g><g><path fill="none" stroke="none"/><text dominant-baseline="central" fill="#000000" font-family="Arial" font-size="13px" font-style="normal" font-weight="normal" stroke="none" text-anchor="start" text-decoration="undefined" transform="matrix(1 0 0 1 -134 -302)" x="653" y="621.5">+is_inside(position)</text></g></g><g><rect fill="#C0C0C0" fill-opacity="0.2" height="58" stroke="none" transform="matrix(1 0 0 1 -134 -302)" width="240" x="1695" y="463"/></g><g><rect fill="#ffffff" height="58" stroke="none" transform="matrix(1 0 0 1 -134 -302)" width="240" x="1688" y="456"/></g><g><path d=" M 1554 154 L 1794 154 L 1794 212 L 1554 212 L 1554 154 Z Z" fill="none" paint-order="fill stroke markers" stroke="#000000" stroke-dasharray="" stroke-miterlimit="10"/></g><g><path d=" M 1554 179 L 1794 179" fill="none" paint-order="fill stroke markers" stroke="#000000" stroke-dasharray="" stroke-miterlimit="10"/></g><g><path d=" M 1554 189 L 1794 189" fill="none" paint-order="fill stroke markers" stroke="#000000" stroke-dasharray="" stroke-miterlimit="10"/></g><g><g><path fill="none" stroke="none"/><text dominant-baseline="central" fill="#000000" font-family="Arial" font-size="13px" font-style="normal" font-weight="bold" stroke="none" text-anchor="middle" text-decoration="undefined" transform="matrix(1 0 0 1 -134 -302)" x="1808.5" y="469.5">DFSMazeGenerator</text></g></g><g><g><path fill="none" stroke="none"/><text dominant-baseline="central" fill="#000000" font-family="Arial" font-size="13px" font-style="normal" font-weight="normal" stroke="none" text-anchor="start" text-decoration="undefined" transform="matrix(1 0 0 1 -134 -302)" x="1693" y="502.5">+generate(config)</text><path d=" M 1559 207 L 1661.2607421875 207" fill="none" paint-order="fill stroke markers" stroke="#000000" stroke-dasharray="" stroke-miterlimit="10"/></g></g><g><rect fill="#C0C0C0" fill-opacity="0.2" height="58" stroke="none" transform="matrix(1 0 0 1 -134 -302)" width="240" x="1407" y="463"/></g><g><rect fill="#ffffff" height="58" stroke="none" transform="matrix(1 0 0 1 -134 -302)" width="240" x="1400" y="456"/></g><g><path d=" M 1266 154 L 1506 154 L 1506 212 L 1266 212 L 1266 154 Z Z" fill="none" paint-order="fill stroke markers" stroke="#000000" stroke-dasharray="" stroke-miterlimit="10"/></g><g><path d=" M 1266 179 L 1506 179" fill="none" paint-order="fill stroke markers" stroke="#000000" stroke-dasharray="" stroke-miterlimit="10"/></g><g><path d=" M 1266 189 L 1506 189" fill="none" paint-order="fill stroke markers" stroke="#000000" stroke-dasharray="" stroke-miterlimit="10"/></g><g><g><path fill="none" stroke="none"/><text dominant-baseline="central" fill="#000000" font-family="Arial" font-size="13px" font-style="normal" font-weight="bold" stroke="none" text-anchor="middle" text-decoration="undefined" transform="matrix(1 0 0 1 -134 -302)" x="1520.5" y="469.5">SpanningTreeMazeGenerator</text></g></g><g><g><path fill="none" stroke="none"/><text dominant-baseline="central" fill="#000000" font-family="Arial" font-size="13px" font-style="normal" font-weight="normal" stroke="none" text-anchor="start" text-decoration="undefined" transform="matrix(1 0 0 1 -134 -302)" x="1405" y="502.5">+generate(config)</text><path d=" M 1271 207 L 1373.2607421875 207" fill="none" paint-order="fill stroke markers" stroke="#000000" stroke-dasharray="" stroke-miterlimit="10"/></g></g><g><rect fill="#C0C0C0" fill-opacity="0.2" height="73" stroke="none" transform="matrix(1 0 0 1 -134 -302)" width="224" x="519" y="351"/></g><g><rect fill="#ffffff" height="73" stroke="none" transform="matrix(1 0 0 1 -134 -302)" width="224" x="512" y="344"/></g><g><path d=" M 378 42 L 602 42 L 602 115 L 378 115 L 378 42 Z Z" fill="none" paint-order="fill stroke markers" stroke="#000000" stroke-dasharray="" stroke-miterlimit="10"/></g><g><path d=" M 378 67 L 602 67" fill="none" paint-order="fill stroke markers" stroke="#000000" stroke-dasharray="" stroke-miterlimit="10"/></g><g><path d=" M 378 105 L 602 105" fill="none" paint-order="fill stroke markers" stroke="#000000" stroke-dasharray="" stroke-miterlimit="10"/></g><g><g><path fill="none" stroke="none"/><text dominant-baseline="central" fill="#000000" font-family="Arial" font-size="13px" font-style="normal" font-weight="bold" stroke="none" text-anchor="middle" text-decoration="undefined" transform="matrix(1 0 0 1 -134 -302)" x="624.5" y="357.5">MazeConfig</text></g></g><g><g><path fill="none" stroke="none"/><text dominant-baseline="central" fill="#000000" font-family="Arial" font-size="13px" font-style="normal" font-weight="normal" stroke="none" text-anchor="start" text-decoration="undefined" transform="matrix(1 0 0 1 -134 -302)" x="517" y="380.5">+width</text></g></g><g><g><path fill="none" stroke="none"/><text dominant-baseline="central" fill="#000000" font-family="Arial" font-size="13px" font-style="normal" font-weight="normal" stroke="none" text-anchor="start" text-decoration="undefined" transform="matrix(1 0 0 1 -134 -302)" x="517" y="395.5">+height</text></g></g><g><path d=" M 1423 153 L 1497 93" fill="none" paint-order="fill stroke markers" stroke="#000000" stroke-dasharray="" stroke-miterlimit="10"/></g><g><path d=" M 1491.7572464087211 102.67023964445201 L 1497 93 L 1486.4549213552255 96.13070541180753" fill="none" paint-order="fill stroke markers" stroke="#000000" stroke-dasharray="" stroke-miterlimit="10"/></g><g><path d=" M 1639 153 L 1569 93" fill="none" paint-order="fill stroke markers" stroke="#000000" stroke-dasharray="" stroke-miterlimit="10"/></g><g><path d=" M 1579.455595825368 96.41767697955055 L 1569 93 L 1573.976560141318 102.80988527760877" fill="none" paint-order="fill stroke markers" stroke="#000000" stroke-dasharray="" stroke-miterlimit="10"/></g><g><path d=" M 519 116 L 559 169" fill="none" paint-order="fill stroke markers" stroke="#000000" stroke-dasharray="" stroke-miterlimit="10"/></g><g><path d=" M 549.5179430822432 163.42410575706276 L 559 169 L 556.2379258842172 158.35242062349744 L 545.7470480699388 151.4398386926689" fill="#000000" paint-order="stroke fill markers" stroke="none"/></g><g><path d=" M 549.5179430822432 163.42410575706276 L 559 169 L 556.2379258842172 158.35242062349744 L 545.7470480699388 151.4398386926689 L 549.5179430822432 163.42410575706276" fill="none" paint-order="fill stroke markers" stroke="#000000" stroke-dasharray="" stroke-miterlimit="10"/></g><g><rect fill="#C0C0C0" fill-opacity="0.2" height="73" stroke="none" transform="matrix(1 0 0 1 -134 -302)" width="288" x="1023" y="386"/></g><g><rect fill="#ffffff" height="73" stroke="none" transform="matrix(1 0 0 1 -134 -302)" width="288" x="1016" y="379"/></g><g><path d=" M 882 77 L 1170 77 L 1170 150 L 882 150 L 882 77 Z Z" fill="none" paint-order="fill stroke markers" stroke="#000000" stroke-dasharray="" stroke-miterlimit="10"/></g><g><path d=" M 882 102 L 1170 102" fill="none" paint-order="fill stroke markers" stroke="#000000" stroke-dasharray="" stroke-miterlimit="10"/></g><g><path d=" M 882 112 L 1170 112" fill="none" paint-order="fill stroke markers" stroke="#000000" stroke-dasharray="" stroke-miterlimit="10"/></g><g><g><path fill="none" stroke="none"/><text dominant-baseline="central" fill="#000000" font-family="Arial" font-size="13px" font-style="normal" font-weight="bold" stroke="none" text-anchor="middle" text-decoration="undefined" transform="matrix(1 0 0 1 -134 -302)" x="1160.5" y="392.5">BFSMazeSolver</text></g></g><g><g><path fill="none" stroke="none"/><text dominant-baseline="central" fill="#000000" font-family="Arial" font-size="13px" font-style="normal" font-weight="normal" stroke="none" text-anchor="start" text-decoration="undefined" transform="matrix(1 0 0 1 -134 -302)" x="1021" y="425.5">+solve(maze)</text><path d=" M 887 130 L 965.38720703125 130" fill="none" paint-order="fill stroke markers" stroke="#000000" stroke-dasharray="" stroke-miterlimit="10"/></g></g><g><g><path fill="none" stroke="none"/><text dominant-baseline="central" fill="#000000" font-family="Arial" font-size="13px" font-style="normal" font-weight="normal" stroke="none" text-anchor="start" text-decoration="undefined" transform="matrix(1 0 0 1 -134 -302)" x="1021" y="440.5">-calculate_prev_cells(maze, start, end)</text><path d=" M 887 145 L 1110.259765625 145" fill="none" paint-order="fill stroke markers" stroke="#000000" stroke-dasharray="" stroke-miterlimit="10"/></g></g><g><g><path fill="none" stroke="none"/><text dominant-baseline="text-before-edge" fill="#000000" font-family="Arial" font-size="15px" font-style="normal" font-weight="normal" stroke="none" text-anchor="start" text-decoration="undefined" transform="matrix(1 0 0 1 -134 -302)" x="1085" y="845">Actions Part</text></g></g><g><g><path fill="none" stroke="none"/><text dominant-baseline="text-before-edge" fill="#000000" font-family="Arial" font-size="13px" font-style="normal" font-weight="normal" stroke="none" text-anchor="start" text-decoration="undefined" transform="matrix(1 0 0 1 -134 -302)" x="149" y="317">Core</text></g></g><g><rect fill="#C0C0C0" fill-opacity="0.2" height="73" stroke="none" transform="matrix(1 0 0 1 -134 -302)" width="183.76708984375" x="183" y="567"/></g><g><rect fill="#ffffff" height="73" stroke="none" transform="matrix(1 0 0 1 -134 -302)" width="183.76708984375" x="176" y="560"/></g><g><path d=" M 42 258 L 225.76708984375 258 L 225.76708984375 331 L 42 331 L 42 258 Z Z" fill="none" paint-order="fill stroke markers" stroke="#000000" stroke-dasharray="" stroke-miterlimit="10"/></g><g><path d=" M 42 283 L 225.76708984375 283" fill="none" paint-order="fill stroke markers" stroke="#000000" stroke-dasharray="" stroke-miterlimit="10"/></g><g><path d=" M 42 293 L 225.76708984375 293" fill="none" paint-order="fill stroke markers" stroke="#000000" stroke-dasharray="" stroke-miterlimit="10"/></g><g><g><path fill="none" stroke="none"/><text dominant-baseline="central" fill="#000000" font-family="Arial" font-size="13px" font-style="normal" font-weight="bold" stroke="none" text-anchor="middle" text-decoration="undefined" transform="matrix(1 0 0 1 -134 -302)" x="268.383544921875" y="573.5">MazeFileManager</text></g></g><g><g><path fill="none" stroke="none"/><text dominant-baseline="central" fill="#000000" font-family="Arial" font-size="13px" font-style="normal" font-weight="normal" stroke="none" text-anchor="start" text-decoration="undefined" transform="matrix(1 0 0 1 -134 -302)" x="181" y="606.5">+read_from_file(filename)</text></g></g><g><g><path fill="none" stroke="none"/><text dominant-baseline="central" fill="#000000" font-family="Arial" font-size="13px" font-style="normal" font-weight="normal" stroke="none" text-anchor="start" text-decoration="undefined" transform="matrix(1 0 0 1 -134 -302)" x="181" y="621.5">+write_to_file(filename, maze)</text></g></g><g><path d=" M 1106 410 L 1263 410 L 1273 420 L 1273 499 L 1106 499 L 1106 410" fill="#ffffff" paint-order="stroke fill markers" stroke="none"/></g><g><path d=" M 1106 410 L 1263 410 L 1273 420 L 1273 499 L 1106 499 L 1106 410 L 1106 410" fill="none" paint-order="fill stroke markers" stroke="#000000" stroke-dasharray="" stroke-miterlimit="10"/></g><g><path d=" M 1263 410 L 1263 420 L 1273 420 L 1263 410" fill="none" paint-order="fill stroke markers" stroke="#000000" stroke-dasharray="" stroke-miterlimit="10"/></g><g><g><path fill="none" stroke="none"/><text dominant-baseline="text-before-edge" fill="#000000" font-family="Arial" font-size="13px" font-style="normal" font-weight="normal" stroke="none" text-anchor="start" text-decoration="undefined" transform="matrix(1 0 0 1 -134 -302)" x="1245" y="717">Classes from Actions part</text><text dominant-baseline="text-before-edge" fill="#000000" font-family="Arial" font-size="13px" font-style="normal" font-weight="normal" stroke="none" text-anchor="start" text-decoration="undefined" transform="matrix(1 0 0 1 -134 -302)" x="1245" y="730">use Maze Management</text><text dominant-baseline="text-before-edge" fill="#000000" font-family="Arial" font-size="13px" font-style="normal" font-weight="normal" stroke="none" text-anchor="start" text-decoration="undefined" transform="matrix(1 0 0 1 -134 -302)" x="1245" y="743">part to interact with maze</text><text dominant-baseline="text-before-edge" fill="#000000" font-family="Arial" font-size="13px" font-style="normal" font-weight="normal" stroke="none" text-anchor="start" text-decoration="undefined" transform="matrix(1 0 0 1 -134 -302)" x="1245" y="756">generation, loading, saving</text><text dominant-baseline="text-before-edge" fill="#000000" font-family="Arial" font-size="13px" font-style="normal" font-weight="normal" stroke="none" text-anchor="start" text-decoration="undefined" transform="matrix(1 0 0 1 -134 -302)" x="1245" y="769">and solving</text></g></g><g><rect fill="#C0C0C0" fill-opacity="0.2" height="45" stroke="none" transform="matrix(1 0 0 1 -134 -302)" width="112" x="1135" y="1015"/></g><g><rect fill="#ffffff" height="45" stroke="none" transform="matrix(1 0 0 1 -134 -302)" width="112" x="1128" y="1008"/></g><g><path d=" M 994 706 L 1106 706 L 1106 751 L 994 751 L 994 706 Z Z" fill="none" paint-order="fill stroke markers" stroke="#000000" stroke-dasharray="" stroke-miterlimit="10"/></g><g><path d=" M 994 731 L 1106 731" fill="none" paint-order="fill stroke markers" stroke="#000000" stroke-dasharray="" stroke-miterlimit="10"/></g><g><path d=" M 994 741 L 1106 741" fill="none" paint-order="fill stroke markers" stroke="#000000" stroke-dasharray="" stroke-miterlimit="10"/></g><g><g><path fill="none" stroke="none"/><text dominant-baseline="central" fill="#000000" font-family="Arial" font-size="13px" font-style="normal" font-weight="bold" stroke="none" text-anchor="middle" text-decoration="undefined" transform="matrix(1 0 0 1 -134 -302)" x="1184.5" y="1021.5">GenerateAction</text></g></g><g><rect fill="#C0C0C0" fill-opacity="0.2" height="101" stroke="none" transform="matrix(1 0 0 1 -134 -302)" width="168" x="1255" y="863"/></g><g><rect fill="#ffffff" height="101" stroke="none" transform="matrix(1 0 0 1 -134 -302)" width="168" x="1248" y="856"/></g><g><path d=" M 1114 554 L 1282 554 L 1282 655 L 1114 655 L 1114 554 Z Z" fill="none" paint-order="fill stroke markers" stroke="#000000" stroke-dasharray="" stroke-miterlimit="10"/></g><g><path d=" M 1114 579 L 1282 579" fill="none" paint-order="fill stroke markers" stroke="#000000" stroke-dasharray="" stroke-miterlimit="10"/></g><g><path d=" M 1114 617 L 1282 617" fill="none" paint-order="fill stroke markers" stroke="#000000" stroke-dasharray="" stroke-miterlimit="10"/></g><g><g><path fill="none" stroke="none"/><text dominant-baseline="central" fill="#000000" font-family="Arial" font-size="13px" font-style="italic" font-weight="bold" stroke="none" text-anchor="middle" text-decoration="undefined" transform="matrix(1 0 0 1 -134 -302)" x="1332.5" y="869.5">Action</text></g></g><g><g><path fill="none" stroke="none"/><text dominant-baseline="central" fill="#000000" font-family="Arial" font-size="13px" font-style="normal" font-weight="normal" stroke="none" text-anchor="start" text-decoration="undefined" transform="matrix(1 0 0 1 -134 -302)" x="1253" y="892.5">+name</text></g></g><g><g><path fill="none" stroke="none"/><text dominant-baseline="central" fill="#000000" font-family="Arial" font-size="13px" font-style="normal" font-weight="normal" stroke="none" text-anchor="start" text-decoration="undefined" transform="matrix(1 0 0 1 -134 -302)" x="1253" y="907.5">+help</text></g></g><g><g><path fill="none" stroke="none"/><text dominant-baseline="central" fill="#000000" font-family="Arial" font-size="13px" font-style="italic" font-weight="normal" stroke="none" text-anchor="start" text-decoration="undefined" transform="matrix(1 0 0 1 -134 -302)" x="1253" y="930.5">+add_subparser(parser)</text><path d=" M 1119 635 L 1258.826171875 635" fill="none" paint-order="fill stroke markers" stroke="#000000" stroke-dasharray="" stroke-miterlimit="10"/></g></g><g><g><path fill="none" stroke="none"/><text dominant-baseline="central" fill="#000000" font-family="Arial" font-size="13px" font-style="italic" font-weight="normal" stroke="none" text-anchor="start" text-decoration="undefined" transform="matrix(1 0 0 1 -134 -302)" x="1253" y="945.5">+handle(arguments)</text><path d=" M 1119 650 L 1235.7080078125 650" fill="none" paint-order="fill stroke markers" stroke="#000000" stroke-dasharray="" stroke-miterlimit="10"/></g></g><g><rect fill="#C0C0C0" fill-opacity="0.2" height="73" stroke="none" transform="matrix(1 0 0 1 -134 -302)" width="183.76708984375" x="183" y="463"/></g><g><rect fill="#ffffff" height="73" stroke="none" transform="matrix(1 0 0 1 -134 -302)" width="183.76708984375" x="176" y="456"/></g><g><path d=" M 42 154 L 225.76708984375 154 L 225.76708984375 227 L 42 227 L 42 154 Z Z" fill="none" paint-order="fill stroke markers" stroke="#000000" stroke-dasharray="" stroke-miterlimit="10"/></g><g><path d=" M 42 179 L 225.76708984375 179" fill="none" paint-order="fill stroke markers" stroke="#000000" stroke-dasharray="" stroke-miterlimit="10"/></g><g><path d=" M 42 217 L 225.76708984375 217" fill="none" paint-order="fill stroke markers" stroke="#000000" stroke-dasharray="" stroke-miterlimit="10"/></g><g><g><path fill="none" stroke="none"/><text dominant-baseline="central" fill="#000000" font-family="Arial" font-size="13px" font-style="normal" font-weight="bold" stroke="none" text-anchor="middle" text-decoration="undefined" transform="matrix(1 0 0 1 -134 -302)" x="268.383544921875" y="469.5">MazePosition</text></g></g><g><g><path fill="none" stroke="none"/><text dominant-baseline="central" fill="#000000" font-family="Arial" font-size="13px" font-style="normal" font-weight="normal" stroke="none" text-anchor="start" text-decoration="undefined" transform="matrix(1 0 0 1 -134 -302)" x="181" y="492.5">+x</text></g></g><g><g><path fill="none" stroke="none"/><text dominant-baseline="central" fill="#000000" font-family="Arial" font-size="13px" font-style="normal" font-weight="normal" stroke="none" text-anchor="start" text-decoration="undefined" transform="matrix(1 0 0 1 -134 -302)" x="181" y="507.5">+y</text></g></g><g><rect fill="#C0C0C0" fill-opacity="0.2" height="161" stroke="none" transform="matrix(1 0 0 1 -134 -302)" width="213.42333984375" x="399" y="479"/></g><g><rect fill="#ffffff" height="161" stroke="none" transform="matrix(1 0 0 1 -134 -302)" width="213.42333984375" x="392" y="472"/></g><g><path d=" M 258 170 L 471.42333984375 170 L 471.42333984375 331 L 258 331 L 258 170 Z Z" fill="none" paint-order="fill stroke markers" stroke="#000000" stroke-dasharray="" stroke-miterlimit="10"/></g><g><path d=" M 258 195 L 471.42333984375 195" fill="none" paint-order="fill stroke markers" stroke="#000000" stroke-dasharray="" stroke-miterlimit="10"/></g><g><path d=" M 258 233 L 471.42333984375 233" fill="none" paint-order="fill stroke markers" stroke="#000000" stroke-dasharray="" stroke-miterlimit="10"/></g><g><g><path fill="none" stroke="none"/><text dominant-baseline="central" fill="#000000" font-family="Arial" font-size="13px" font-style="normal" font-weight="bold" stroke="none" text-anchor="middle" text-decoration="undefined" transform="matrix(1 0 0 1 -134 -302)" x="499.211669921875" y="485.5">ThickMaze</text></g></g><g><g><path fill="none" stroke="none"/><text dominant-baseline="central" fill="#000000" font-family="Arial" font-size="13px" font-style="normal" font-weight="normal" stroke="none" text-anchor="start" text-decoration="undefined" transform="matrix(1 0 0 1 -134 -302)" x="397" y="508.5">+maze</text></g></g><g><g><path fill="none" stroke="none"/><text dominant-baseline="central" fill="#000000" font-family="Arial" font-size="13px" font-style="normal" font-weight="normal" stroke="none" text-anchor="start" text-decoration="undefined" transform="matrix(1 0 0 1 -134 -302)" x="397" y="523.5">+config</text></g></g><g><g><path fill="none" stroke="none"/><text dominant-baseline="central" fill="#000000" font-family="Arial" font-size="13px" font-style="normal" font-weight="normal" stroke="none" text-anchor="start" text-decoration="undefined" transform="matrix(1 0 0 1 -134 -302)" x="397" y="546.5">+from_thin_maze(maze)</text><path d=" M 263 251 L 404.248046875 251" fill="none" paint-order="fill stroke markers" stroke="#000000" stroke-dasharray="" stroke-miterlimit="10"/></g></g><g><path d=" M 462 116 L 423 169" fill="none" paint-order="fill stroke markers" stroke="#000000" stroke-dasharray="" stroke-miterlimit="10"/></g><g><path d=" M 425.6327154494079 158.3196999404301 L 423 169 L 432.4137235444399 163.30949834998194 L 436.03897160823897 151.2803719170086" fill="#000000" paint-order="stroke fill markers" stroke="none"/></g><g><path d=" M 425.6327154494079 158.3196999404301 L 423 169 L 432.4137235444399 163.30949834998194 L 436.03897160823897 151.2803719170086 L 425.6327154494079 158.3196999404301" fill="none" paint-order="fill stroke markers" stroke="#000000" stroke-dasharray="" stroke-miterlimit="10"/></g><g><rect fill="#C0C0C0" fill-opacity="0.2" height="45" stroke="none" transform="matrix(1 0 0 1 -134 -302)" width="112" x="1439" y="1015"/></g><g><rect fill="#ffffff" height="45" stroke="none" transform="matrix(1 0 0 1 -134 -302)" width="112" x="1432" y="1008"/></g><g><path d=" M 1298 706 L 1410 706 L 1410 751 L 1298 751 L 1298 706 Z Z" fill="none" paint-order="fill stroke markers" stroke="#000000" stroke-dasharray="" stroke-miterlimit="10"/></g><g><path d=" M 1298 731 L 1410 731" fill="none" paint-order="fill stroke markers" stroke="#000000" stroke-dasharray="" stroke-miterlimit="10"/></g><g><path d=" M 1298 741 L 1410 741" fill="none" paint-order="fill stroke markers" stroke="#000000" stroke-dasharray="" stroke-miterlimit="10"/></g><g><g><path fill="none" stroke="none"/><text dominant-baseline="central" fill="#000000" font-family="Arial" font-size="13px" font-style="normal" font-weight="bold" stroke="none" text-anchor="middle" text-decoration="undefined" transform="matrix(1 0 0 1 -134 -302)" x="1488.5" y="1021.5">DrawAction</text></g></g><g><rect fill="#C0C0C0" fill-opacity="0.2" height="45" stroke="none" transform="matrix(1 0 0 1 -134 -302)" width="112" x="1287" y="1015"/></g><g><rect fill="#ffffff" height="45" stroke="none" transform="matrix(1 0 0 1 -134 -302)" width="112" x="1280" y="1008"/></g><g><path d=" M 1146 706 L 1258 706 L 1258 751 L 1146 751 L 1146 706 Z Z" fill="none" paint-order="fill stroke markers" stroke="#000000" stroke-dasharray="" stroke-miterlimit="10"/></g><g><path d=" M 1146 731 L 1258 731" fill="none" paint-order="fill stroke markers" stroke="#000000" stroke-dasharray="" stroke-miterlimit="10"/></g><g><path d=" M 1146 741 L 1258 741" fill="none" paint-order="fill stroke markers" stroke="#000000" stroke-dasharray="" stroke-miterlimit="10"/></g><g><g><path fill="none" stroke="none"/><text dominant-baseline="central" fill="#000000" font-family="Arial" font-size="13px" font-style="normal" font-weight="bold" stroke="none" text-anchor="middle" text-decoration="undefined" transform="matrix(1 0 0 1 -134 -302)" x="1336.5" y="1021.5">SolveAction</text></g></g><g><rect fill="#C0C0C0" fill-opacity="0.2" height="86" stroke="none" transform="matrix(1 0 0 1 -134 -302)" width="235.43701171875" x="2007" y="479"/></g><g><rect fill="#ffffff" height="86" stroke="none" transform="matrix(1 0 0 1 -134 -302)" width="235.43701171875" x="2000" y="472"/></g><g><path d=" M 1866 170 L 2101.43701171875 170 L 2101.43701171875 256 L 1866 256 L 1866 170 Z Z" fill="none" paint-order="fill stroke markers" stroke="#000000" stroke-dasharray="" stroke-miterlimit="10"/></g><g><path d=" M 1866 195 L 2101.43701171875 195" fill="none" paint-order="fill stroke markers" stroke="#000000" stroke-dasharray="" stroke-miterlimit="10"/></g><g><path d=" M 1866 218 L 2101.43701171875 218" fill="none" paint-order="fill stroke markers" stroke="#000000" stroke-dasharray="" stroke-miterlimit="10"/></g><g><g><path fill="none" stroke="none"/><text dominant-baseline="central" fill="#000000" font-family="Arial" font-size="13px" font-style="normal" font-weight="bold" stroke="none" text-anchor="middle" text-decoration="undefined" transform="matrix(1 0 0 1 -134 -302)" x="2118.218505859375" y="485.5">TextMazeDrawer</text></g></g><g><g><path fill="none" stroke="none"/><text dominant-baseline="central" fill="#000000" font-family="Arial" font-size="13px" font-style="normal" font-weight="normal" stroke="none" text-anchor="start" text-decoration="undefined" transform="matrix(1 0 0 1 -134 -302)" x="2005" y="508.5">-symbols</text></g></g><g><g><path fill="none" stroke="none"/><text dominant-baseline="central" fill="#000000" font-family="Arial" font-size="13px" font-style="normal" font-weight="normal" stroke="none" text-anchor="start" text-decoration="undefined" transform="matrix(1 0 0 1 -134 -302)" x="2005" y="531.5">-get_character_for_cell(maze, position)</text></g></g><g><g><path fill="none" stroke="none"/><text dominant-baseline="central" fill="#000000" font-family="Arial" font-size="13px" font-style="normal" font-weight="normal" stroke="none" text-anchor="start" text-decoration="undefined" transform="matrix(1 0 0 1 -134 -302)" x="2005" y="546.5">+draw(maze)</text></g></g><g><rect fill="#C0C0C0" fill-opacity="0.2" height="86" stroke="none" transform="matrix(1 0 0 1 -134 -302)" width="235.43701171875" x="2007" y="359"/></g><g><rect fill="#ffffff" height="86" stroke="none" transform="matrix(1 0 0 1 -134 -302)" width="235.43701171875" x="2000" y="352"/></g><g><path d=" M 1866 50 L 2101.43701171875 50 L 2101.43701171875 136 L 1866 136 L 1866 50 Z Z" fill="none" paint-order="fill stroke markers" stroke="#000000" stroke-dasharray="" stroke-miterlimit="10"/></g><g><path d=" M 1866 75 L 2101.43701171875 75" fill="none" paint-order="fill stroke markers" stroke="#000000" stroke-dasharray="" stroke-miterlimit="10"/></g><g><path d=" M 1866 85 L 2101.43701171875 85" fill="none" paint-order="fill stroke markers" stroke="#000000" stroke-dasharray="" stroke-miterlimit="10"/></g><g><g><path fill="none" stroke="none"/><text dominant-baseline="central" fill="#000000" font-family="Arial" font-size="13px" font-style="normal" font-weight="bold" stroke="none" text-anchor="middle" text-decoration="undefined" transform="matrix(1 0 0 1 -134 -302)" x="2118.218505859375" y="365.5">TextThickMazeDrawer</text></g></g><g><g><path fill="none" stroke="none"/><text dominant-baseline="central" fill="#000000" font-family="Arial" font-size="13px" font-style="normal" font-weight="normal" stroke="none" text-anchor="start" text-decoration="undefined" transform="matrix(1 0 0 1 -134 -302)" x="2005" y="398.5">+draw(maze, solution)</text><path d=" M 1871 103 L 1999.248046875 103" fill="none" paint-order="fill stroke markers" stroke="#000000" stroke-dasharray="" stroke-miterlimit="10"/></g></g><g><g><path fill="none" stroke="none"/><text dominant-baseline="central" fill="#000000" font-family="Arial" font-size="13px" font-style="normal" font-weight="normal" stroke="none" text-anchor="start" text-decoration="undefined" transform="matrix(1 0 0 1 -134 -302)" x="2005" y="413.5">-draw_thick_maze(maze, solution)</text><path d=" M 1871 118 L 2068.96435546875 118" fill="none" paint-order="fill stroke markers" stroke="#000000" stroke-dasharray="" stroke-miterlimit="10"/></g></g><g><path d=" M 1077 705 L 1136 656" fill="none" paint-order="fill stroke markers" stroke="#000000" stroke-dasharray="" stroke-miterlimit="10"/></g><g><path d=" M 1130.8714315157906 665.7312787085139 L 1136 656 L 1125.4925012826295 659.2546076114423" fill="none" paint-order="fill stroke markers" stroke="#000000" stroke-dasharray="" stroke-miterlimit="10"/></g><g><path d=" M 1201 705 L 1200 656" fill="none" paint-order="fill stroke markers" stroke="#000000" stroke-dasharray="" stroke-miterlimit="10"/></g><g><path d=" M 1204.4159997626793 666.0746685352926 L 1200 656 L 1195.9987169383965 666.2464498174209" fill="none" paint-order="fill stroke markers" stroke="#000000" stroke-dasharray="" stroke-miterlimit="10"/></g><g><path d=" M 1325 705 L 1263 656" fill="none" paint-order="fill stroke markers" stroke="#000000" stroke-dasharray="" stroke-miterlimit="10"/></g><g><path d=" M 1273.5833458396041 658.9987982325146 L 1263 656 L 1268.3630850452053 665.6040261764479" fill="none" paint-order="fill stroke markers" stroke="#000000" stroke-dasharray="" stroke-miterlimit="10"/></g><g><g><path fill="none" stroke="none"/><text dominant-baseline="text-before-edge" fill="#000000" font-family="Arial" font-size="13px" font-style="normal" font-weight="normal" stroke="none" text-anchor="start" text-decoration="undefined" transform="matrix(1 0 0 1 -134 -302)" x="1381" y="317">Maze Generators</text></g></g><g><g><path fill="none" stroke="none"/><text dominant-baseline="text-before-edge" fill="#000000" font-family="Arial" font-size="13px" font-style="normal" font-weight="normal" stroke="none" text-anchor="start" text-decoration="undefined" transform="matrix(1 0 0 1 -134 -302)" x="1981" y="317">Maze Drawers</text></g></g><g><g><path fill="none" stroke="none"/><text dominant-baseline="text-before-edge" fill="#000000" font-family="Arial" font-size="13px" font-style="normal" font-weight="normal" stroke="none" text-anchor="start" text-decoration="undefined" transform="matrix(1 0 0 1 -134 -302)" x="973" y="317">Maze Solvers</text></g></g></g></svg>