<?xml version="1.0" encoding="UTF-8" standalone="no"?><svg xmlns="http://www.w3.org/2000/svg" xmlns:xlink="http://www.w3.org/1999/xlink" height="636" version="1.1" width="1484"><defs/><g><g><rect fill="#ffffff" height="616" stroke="none" transform="matrix(1 0 0 1 -246 -246)" width="688" x="256" y="256"/></g><g><path d=" M 10 10 L 698 10 L 698 626 L 10 626 L 10 10 Z Z" fill="none" paint-order="fill stroke markers" stroke="#000000" stroke-dasharray="" stroke-miterlimit="10"/></g><g><rect fill="#ffffff" height="496" stroke="none" transform="matrix(1 0 0 1 -246 -246)" width="576" x="1144" y="320"/></g><g><path d=" M 898 74 L 1474 74 L 1474 570 L 898 570 L 898 74 Z Z" fill="none" paint-order="fill stroke markers" stroke="#000000" stroke-dasharray="" stroke-miterlimit="10"/></g><g><rect fill="#C0C0C0" fill-opacity="0.2" height="58" stroke="none" transform="matrix(1 0 0 1 -246 -246)" width="232" x="543" y="679"/></g><g><rect fill="#ffffff" height="58" stroke="none" transform="matrix(1 0 0 1 -246 -246)" width="232" x="536" y="672"/></g><g><path d=" M 290 426 L 522 426 L 522 484 L 290 484 L 290 426 Z Z" fill="none" paint-order="fill stroke markers" stroke="#000000" stroke-dasharray="" stroke-miterlimit="10"/></g><g><path d=" M 290 451 L 522 451" fill="none" paint-order="fill stroke markers" stroke="#000000" stroke-dasharray="" stroke-miterlimit="10"/></g><g><path d=" M 290 461 L 522 461" fill="none" paint-order="fill stroke markers" stroke="#000000" stroke-dasharray="" stroke-miterlimit="10"/></g><g><g><path fill="none" stroke="none"/><text dominant-baseline="central" fill="#000000" font-family="Arial" font-size="13px" font-style="normal" font-weight="bold" stroke="none" text-anchor="middle" text-decoration="undefined" transform="matrix(1 0 0 1 -246 -246)" x="652.5" y="685.5">MazeGenerator</text></g></g><g><g><path fill="none" stroke="none"/><text dominant-baseline="central" fill="#000000" font-family="Arial" font-size="13px" font-style="normal" font-weight="normal" stroke="none" text-anchor="start" text-decoration="undefined" transform="matrix(1 0 0 1 -246 -246)" x="541" y="718.5">+generate(config: MazeConfig): Maze</text></g></g><g><rect fill="#C0C0C0" fill-opacity="0.2" height="73" stroke="none" transform="matrix(1 0 0 1 -246 -246)" width="248" x="607" y="543"/></g><g><rect fill="#ffffff" height="73" stroke="none" transform="matrix(1 0 0 1 -246 -246)" width="248" x="600" y="536"/></g><g><path d=" M 354 290 L 602 290 L 602 363 L 354 363 L 354 290 Z Z" fill="none" paint-order="fill stroke markers" stroke="#000000" stroke-dasharray="" stroke-miterlimit="10"/></g><g><path d=" M 354 315 L 602 315" fill="none" paint-order="fill stroke markers" stroke="#000000" stroke-dasharray="" stroke-miterlimit="10"/></g><g><path d=" M 354 353 L 602 353" fill="none" paint-order="fill stroke markers" stroke="#000000" stroke-dasharray="" stroke-miterlimit="10"/></g><g><g><path fill="none" stroke="none"/><text dominant-baseline="central" fill="#000000" font-family="Arial" font-size="13px" font-style="normal" font-weight="bold" stroke="none" text-anchor="middle" text-decoration="undefined" transform="matrix(1 0 0 1 -246 -246)" x="724.5" y="549.5">Maze</text></g></g><g><g><path fill="none" stroke="none"/><text dominant-baseline="central" fill="#000000" font-family="Arial" font-size="13px" font-style="normal" font-weight="normal" stroke="none" text-anchor="start" text-decoration="undefined" transform="matrix(1 0 0 1 -246 -246)" x="605" y="572.5">+maze</text></g></g><g><g><path fill="none" stroke="none"/><text dominant-baseline="central" fill="#000000" font-family="Arial" font-size="13px" font-style="normal" font-weight="normal" stroke="none" text-anchor="start" text-decoration="undefined" transform="matrix(1 0 0 1 -246 -246)" x="605" y="587.5">+config: MazeConfig</text></g></g><g><rect fill="#C0C0C0" fill-opacity="0.2" height="58" stroke="none" transform="matrix(1 0 0 1 -246 -246)" width="288" x="587" y="415"/></g><g><rect fill="#ffffff" height="58" stroke="none" transform="matrix(1 0 0 1 -246 -246)" width="288" x="580" y="408"/></g><g><path d=" M 334 162 L 622 162 L 622 220 L 334 220 L 334 162 Z Z" fill="none" paint-order="fill stroke markers" stroke="#000000" stroke-dasharray="" stroke-miterlimit="10"/></g><g><path d=" M 334 187 L 622 187" fill="none" paint-order="fill stroke markers" stroke="#000000" stroke-dasharray="" stroke-miterlimit="10"/></g><g><path d=" M 334 197 L 622 197" fill="none" paint-order="fill stroke markers" stroke="#000000" stroke-dasharray="" stroke-miterlimit="10"/></g><g><g><path fill="none" stroke="none"/><text dominant-baseline="central" fill="#000000" font-family="Arial" font-size="13px" font-style="normal" font-weight="bold" stroke="none" text-anchor="middle" text-decoration="undefined" transform="matrix(1 0 0 1 -246 -246)" x="724.5" y="421.5">MazeSolver</text></g></g><g><g><path fill="none" stroke="none"/><text dominant-baseline="central" fill="#000000" font-family="Arial" font-size="13px" font-style="normal" font-weight="normal" stroke="none" text-anchor="start" text-decoration="undefined" transform="matrix(1 0 0 1 -246 -246)" x="585" y="454.5">+solve(maze: Maze): MazeSolution</text></g></g><g><rect fill="#C0C0C0" fill-opacity="0.2" height="71" stroke="none" transform="matrix(1 0 0 1 -246 -246)" width="208" x="1473" y="719"/></g><g><rect fill="#ffffff" height="71" stroke="none" transform="matrix(1 0 0 1 -246 -246)" width="208" x="1466" y="712"/></g><g><path d=" M 1220 466 L 1428 466 L 1428 537 L 1220 537 L 1220 466 Z Z" fill="none" paint-order="fill stroke markers" stroke="#000000" stroke-dasharray="" stroke-miterlimit="10"/></g><g><path d=" M 1220 491 L 1428 491" fill="none" paint-order="fill stroke markers" stroke="#000000" stroke-dasharray="" stroke-miterlimit="10"/></g><g><path d=" M 1220 514 L 1428 514" fill="none" paint-order="fill stroke markers" stroke="#000000" stroke-dasharray="" stroke-miterlimit="10"/></g><g><g><path fill="none" stroke="none"/><text dominant-baseline="central" fill="#000000" font-family="Arial" font-size="13px" font-style="normal" font-weight="bold" stroke="none" text-anchor="middle" text-decoration="undefined" transform="matrix(1 0 0 1 -246 -246)" x="1570.5" y="725.5">MazeView</text></g></g><g><g><path fill="none" stroke="none"/><text dominant-baseline="central" fill="#000000" font-family="Arial" font-size="13px" font-style="normal" font-weight="normal" stroke="none" text-anchor="start" text-decoration="undefined" transform="matrix(1 0 0 1 -246 -246)" x="1471" y="748.5">+maze: Maze</text></g></g><g><g><path fill="none" stroke="none"/><text dominant-baseline="central" fill="#000000" font-family="Arial" font-size="13px" font-style="normal" font-weight="normal" stroke="none" text-anchor="start" text-decoration="undefined" transform="matrix(1 0 0 1 -246 -246)" x="1471" y="771.5">+drawMaze()</text></g></g><g><rect fill="#C0C0C0" fill-opacity="0.2" height="58" stroke="none" transform="matrix(1 0 0 1 -246 -246)" width="240" x="679" y="799"/></g><g><rect fill="#ffffff" height="58" stroke="none" transform="matrix(1 0 0 1 -246 -246)" width="240" x="672" y="792"/></g><g><path d=" M 426 546 L 666 546 L 666 604 L 426 604 L 426 546 Z Z" fill="none" paint-order="fill stroke markers" stroke="#000000" stroke-dasharray="" stroke-miterlimit="10"/></g><g><path d=" M 426 571 L 666 571" fill="none" paint-order="fill stroke markers" stroke="#000000" stroke-dasharray="" stroke-miterlimit="10"/></g><g><path d=" M 426 581 L 666 581" fill="none" paint-order="fill stroke markers" stroke="#000000" stroke-dasharray="" stroke-miterlimit="10"/></g><g><g><path fill="none" stroke="none"/><text dominant-baseline="central" fill="#000000" font-family="Arial" font-size="13px" font-style="normal" font-weight="bold" stroke="none" text-anchor="middle" text-decoration="undefined" transform="matrix(1 0 0 1 -246 -246)" x="792.5" y="805.5">DFSMazeGenerator</text></g></g><g><g><path fill="none" stroke="none"/><text dominant-baseline="central" fill="#000000" font-family="Arial" font-size="13px" font-style="normal" font-weight="normal" stroke="none" text-anchor="start" text-decoration="undefined" transform="matrix(1 0 0 1 -246 -246)" x="677" y="838.5">+generate(config: MazeConfig): Maze</text></g></g><g><rect fill="#C0C0C0" fill-opacity="0.2" height="58" stroke="none" transform="matrix(1 0 0 1 -246 -246)" width="240" x="391" y="799"/></g><g><rect fill="#ffffff" height="58" stroke="none" transform="matrix(1 0 0 1 -246 -246)" width="240" x="384" y="792"/></g><g><path d=" M 138 546 L 378 546 L 378 604 L 138 604 L 138 546 Z Z" fill="none" paint-order="fill stroke markers" stroke="#000000" stroke-dasharray="" stroke-miterlimit="10"/></g><g><path d=" M 138 571 L 378 571" fill="none" paint-order="fill stroke markers" stroke="#000000" stroke-dasharray="" stroke-miterlimit="10"/></g><g><path d=" M 138 581 L 378 581" fill="none" paint-order="fill stroke markers" stroke="#000000" stroke-dasharray="" stroke-miterlimit="10"/></g><g><g><path fill="none" stroke="none"/><text dominant-baseline="central" fill="#000000" font-family="Arial" font-size="13px" font-style="normal" font-weight="bold" stroke="none" text-anchor="middle" text-decoration="undefined" transform="matrix(1 0 0 1 -246 -246)" x="504.5" y="805.5">SpanningTreeMazeGenerator</text></g></g><g><g><path fill="none" stroke="none"/><text dominant-baseline="central" fill="#000000" font-family="Arial" font-size="13px" font-style="normal" font-weight="normal" stroke="none" text-anchor="start" text-decoration="undefined" transform="matrix(1 0 0 1 -246 -246)" x="389" y="838.5">+generate(config: MazeConfig): Maze</text></g></g><g><rect fill="#C0C0C0" fill-opacity="0.2" height="73" stroke="none" transform="matrix(1 0 0 1 -246 -246)" width="224" x="279" y="543"/></g><g><rect fill="#ffffff" height="73" stroke="none" transform="matrix(1 0 0 1 -246 -246)" width="224" x="272" y="536"/></g><g><path d=" M 26 290 L 250 290 L 250 363 L 26 363 L 26 290 Z Z" fill="none" paint-order="fill stroke markers" stroke="#000000" stroke-dasharray="" stroke-miterlimit="10"/></g><g><path d=" M 26 315 L 250 315" fill="none" paint-order="fill stroke markers" stroke="#000000" stroke-dasharray="" stroke-miterlimit="10"/></g><g><path d=" M 26 353 L 250 353" fill="none" paint-order="fill stroke markers" stroke="#000000" stroke-dasharray="" stroke-miterlimit="10"/></g><g><g><path fill="none" stroke="none"/><text dominant-baseline="central" fill="#000000" font-family="Arial" font-size="13px" font-style="normal" font-weight="bold" stroke="none" text-anchor="middle" text-decoration="undefined" transform="matrix(1 0 0 1 -246 -246)" x="384.5" y="549.5">MazeConfig</text></g></g><g><g><path fill="none" stroke="none"/><text dominant-baseline="central" fill="#000000" font-family="Arial" font-size="13px" font-style="normal" font-weight="normal" stroke="none" text-anchor="start" text-decoration="undefined" transform="matrix(1 0 0 1 -246 -246)" x="277" y="572.5">+width</text></g></g><g><g><path fill="none" stroke="none"/><text dominant-baseline="central" fill="#000000" font-family="Arial" font-size="13px" font-style="normal" font-weight="normal" stroke="none" text-anchor="start" text-decoration="undefined" transform="matrix(1 0 0 1 -246 -246)" x="277" y="587.5">+height</text></g></g><g><path d=" M 295 545 L 369 485" fill="none" paint-order="fill stroke markers" stroke="#000000" stroke-dasharray="" stroke-miterlimit="10"/></g><g><path d=" M 363.757246408721 494.67023964445207 L 369 485 L 358.45492135522545 488.1307054118075" fill="none" paint-order="fill stroke markers" stroke="#000000" stroke-dasharray="" stroke-miterlimit="10"/></g><g><path d=" M 511 545 L 441 485" fill="none" paint-order="fill stroke markers" stroke="#000000" stroke-dasharray="" stroke-miterlimit="10"/></g><g><path d=" M 451.4555958253678 488.4176769795506 L 441 485 L 445.97656014131803 494.8098852776087" fill="none" paint-order="fill stroke markers" stroke="#000000" stroke-dasharray="" stroke-miterlimit="10"/></g><g><path d=" M 251 326 L 353 326" fill="none" paint-order="fill stroke markers" stroke="#000000" stroke-dasharray="" stroke-miterlimit="10"/></g><g><path d=" M 342.8373251423759 330.209517756016 L 353 326 L 342.8373251423758 321.790482243984 L 331 326" fill="#000000" paint-order="stroke fill markers" stroke="none"/></g><g><path d=" M 342.8373251423759 330.209517756016 L 353 326 L 342.8373251423758 321.790482243984 L 331 326 L 342.8373251423759 330.209517756016" fill="none" paint-order="fill stroke markers" stroke="#000000" stroke-dasharray="" stroke-miterlimit="10"/></g><g><rect fill="#C0C0C0" fill-opacity="0.2" height="58" stroke="none" transform="matrix(1 0 0 1 -246 -246)" width="288" x="587" y="319"/></g><g><rect fill="#ffffff" height="58" stroke="none" transform="matrix(1 0 0 1 -246 -246)" width="288" x="580" y="312"/></g><g><path d=" M 334 66 L 622 66 L 622 124 L 334 124 L 334 66 Z Z" fill="none" paint-order="fill stroke markers" stroke="#000000" stroke-dasharray="" stroke-miterlimit="10"/></g><g><path d=" M 334 91 L 622 91" fill="none" paint-order="fill stroke markers" stroke="#000000" stroke-dasharray="" stroke-miterlimit="10"/></g><g><path d=" M 334 101 L 622 101" fill="none" paint-order="fill stroke markers" stroke="#000000" stroke-dasharray="" stroke-miterlimit="10"/></g><g><g><path fill="none" stroke="none"/><text dominant-baseline="central" fill="#000000" font-family="Arial" font-size="13px" font-style="normal" font-weight="bold" stroke="none" text-anchor="middle" text-decoration="undefined" transform="matrix(1 0 0 1 -246 -246)" x="724.5" y="325.5">DFSMazeSolver</text></g></g><g><g><path fill="none" stroke="none"/><text dominant-baseline="central" fill="#000000" font-family="Arial" font-size="13px" font-style="normal" font-weight="normal" stroke="none" text-anchor="start" text-decoration="undefined" transform="matrix(1 0 0 1 -246 -246)" x="585" y="358.5">+solve(maze: Maze): MazeSolution</text></g></g><g><path d=" M 478 125 L 478 161" fill="none" paint-order="fill stroke markers" stroke="#000000" stroke-dasharray="" stroke-miterlimit="10"/></g><g><path d=" M 473.790482243984 150.83732514237585 L 478 161 L 482.209517756016 150.83732514237585" fill="none" paint-order="fill stroke markers" stroke="#000000" stroke-dasharray="" stroke-miterlimit="10"/></g><g><rect fill="#C0C0C0" fill-opacity="0.2" height="120" stroke="none" transform="matrix(1 0 0 1 -246 -246)" width="208" x="1175" y="487"/></g><g><rect fill="#ffffff" height="120" stroke="none" transform="matrix(1 0 0 1 -246 -246)" width="208" x="1168" y="480"/></g><g><path d=" M 922 234 L 1130 234 L 1130 354 L 922 354 L 922 234 Z Z" fill="none" paint-order="fill stroke markers" stroke="#000000" stroke-dasharray="" stroke-miterlimit="10"/></g><g><path d=" M 922 259 L 1130 259" fill="none" paint-order="fill stroke markers" stroke="#000000" stroke-dasharray="" stroke-miterlimit="10"/></g><g><path d=" M 922 269 L 1130 269" fill="none" paint-order="fill stroke markers" stroke="#000000" stroke-dasharray="" stroke-miterlimit="10"/></g><g><g><path fill="none" stroke="none"/><text dominant-baseline="central" fill="#000000" font-family="Arial" font-size="13px" font-style="normal" font-weight="bold" stroke="none" text-anchor="middle" text-decoration="undefined" transform="matrix(1 0 0 1 -246 -246)" x="1272.5" y="493.5">MainPageView</text></g></g><g><g><path fill="none" stroke="none"/><text dominant-baseline="central" fill="#000000" font-family="Arial" font-size="13px" font-style="normal" font-weight="normal" stroke="none" text-anchor="start" text-decoration="undefined" transform="matrix(1 0 0 1 -246 -246)" x="1173" y="526.5">+drawMainPage()</text></g></g><g><rect fill="#C0C0C0" fill-opacity="0.2" height="176" stroke="none" transform="matrix(1 0 0 1 -246 -246)" width="208" x="1473" y="487"/></g><g><rect fill="#ffffff" height="176" stroke="none" transform="matrix(1 0 0 1 -246 -246)" width="208" x="1466" y="480"/></g><g><path d=" M 1220 234 L 1428 234 L 1428 410 L 1220 410 L 1220 234 Z Z" fill="none" paint-order="fill stroke markers" stroke="#000000" stroke-dasharray="" stroke-miterlimit="10"/></g><g><path d=" M 1220 259 L 1428 259" fill="none" paint-order="fill stroke markers" stroke="#000000" stroke-dasharray="" stroke-miterlimit="10"/></g><g><path d=" M 1220 297 L 1428 297" fill="none" paint-order="fill stroke markers" stroke="#000000" stroke-dasharray="" stroke-miterlimit="10"/></g><g><g><path fill="none" stroke="none"/><text dominant-baseline="central" fill="#000000" font-family="Arial" font-size="13px" font-style="normal" font-weight="bold" stroke="none" text-anchor="middle" text-decoration="undefined" transform="matrix(1 0 0 1 -246 -246)" x="1570.5" y="493.5">MazePageView</text></g></g><g><g><path fill="none" stroke="none"/><text dominant-baseline="central" fill="#000000" font-family="Arial" font-size="13px" font-style="normal" font-weight="normal" stroke="none" text-anchor="start" text-decoration="undefined" transform="matrix(1 0 0 1 -246 -246)" x="1471" y="516.5">+maze: Maze</text></g></g><g><g><path fill="none" stroke="none"/><text dominant-baseline="central" fill="#000000" font-family="Arial" font-size="13px" font-style="normal" font-weight="normal" stroke="none" text-anchor="start" text-decoration="undefined" transform="matrix(1 0 0 1 -246 -246)" x="1471" y="531.5">+mazeView: MazeView</text></g></g><g><g><path fill="none" stroke="none"/><text dominant-baseline="central" fill="#000000" font-family="Arial" font-size="13px" font-style="normal" font-weight="normal" stroke="none" text-anchor="start" text-decoration="undefined" transform="matrix(1 0 0 1 -246 -246)" x="1471" y="554.5">+drawMazePage()</text></g></g><g><path d=" M 1324 465 L 1324 411" fill="none" paint-order="fill stroke markers" stroke="#000000" stroke-dasharray="" stroke-miterlimit="10"/></g><g><path d=" M 1328.2095177560159 421.1626748576241 L 1324 411 L 1319.7904822439841 421.1626748576241 L 1324 433" fill="#000000" paint-order="stroke fill markers" stroke="none"/></g><g><path d=" M 1328.2095177560159 421.1626748576241 L 1324 411 L 1319.7904822439841 421.1626748576241 L 1324 433 L 1328.2095177560159 421.1626748576241" fill="none" paint-order="fill stroke markers" stroke="#000000" stroke-dasharray="" stroke-miterlimit="10"/></g><g><g><path fill="none" stroke="none"/><text dominant-baseline="text-before-edge" fill="#000000" font-family="Arial" font-size="15px" font-style="normal" font-weight="normal" stroke="none" text-anchor="start" text-decoration="undefined" transform="matrix(1 0 0 1 -246 -246)" x="1149" y="325">Views Part</text></g></g><g><g><path fill="none" stroke="none"/><text dominant-baseline="text-before-edge" fill="#000000" font-family="Arial" font-size="13px" font-style="normal" font-weight="normal" stroke="none" text-anchor="start" text-decoration="undefined" transform="matrix(1 0 0 1 -246 -246)" x="261" y="261">Maze Management Part</text></g></g><g><rect fill="#C0C0C0" fill-opacity="0.2" height="71" stroke="none" transform="matrix(1 0 0 1 -246 -246)" width="232" x="1319" y="343"/></g><g><rect fill="#ffffff" height="71" stroke="none" transform="matrix(1 0 0 1 -246 -246)" width="232" x="1312" y="336"/></g><g><path d=" M 1066 90 L 1298 90 L 1298 161 L 1066 161 L 1066 90 Z Z" fill="none" paint-order="fill stroke markers" stroke="#000000" stroke-dasharray="" stroke-miterlimit="10"/></g><g><path d=" M 1066 115 L 1298 115" fill="none" paint-order="fill stroke markers" stroke="#000000" stroke-dasharray="" stroke-miterlimit="10"/></g><g><path d=" M 1066 138 L 1298 138" fill="none" paint-order="fill stroke markers" stroke="#000000" stroke-dasharray="" stroke-miterlimit="10"/></g><g><g><path fill="none" stroke="none"/><text dominant-baseline="central" fill="#000000" font-family="Arial" font-size="13px" font-style="normal" font-weight="bold" stroke="none" text-anchor="middle" text-decoration="undefined" transform="matrix(1 0 0 1 -246 -246)" x="1428.5" y="349.5">StateManager</text></g></g><g><g><path fill="none" stroke="none"/><text dominant-baseline="central" fill="#000000" font-family="Arial" font-size="13px" font-style="normal" font-weight="normal" stroke="none" text-anchor="start" text-decoration="undefined" transform="matrix(1 0 0 1 -246 -246)" x="1317" y="372.5">+currentState</text></g></g><g><g><path fill="none" stroke="none"/><text dominant-baseline="central" fill="#000000" font-family="Arial" font-size="13px" font-style="normal" font-weight="normal" stroke="none" text-anchor="start" text-decoration="undefined" transform="matrix(1 0 0 1 -246 -246)" x="1317" y="395.5">+switchState(newState)</text></g></g><g><path d=" M 1082 233 L 1148 162" fill="none" paint-order="fill stroke markers" stroke="#000000" stroke-dasharray="3" stroke-miterlimit="10"/></g><g><path d=" M 1144.1639367227333 172.3094431727813 L 1148 162 L 1137.997616465853 166.57737082131507" fill="none" paint-order="fill stroke markers" stroke="#000000" stroke-dasharray="" stroke-miterlimit="10"/></g><g><path d=" M 1260 233 L 1209 162" fill="none" paint-order="fill stroke markers" stroke="#000000" stroke-dasharray="3" stroke-miterlimit="10"/></g><g><path d=" M 1218.3478138520597 167.79813557854953 L 1209 162 L 1211.5100015782295 172.70980354989229" fill="none" paint-order="fill stroke markers" stroke="#000000" stroke-dasharray="" stroke-miterlimit="10"/></g><g><g><path fill="none" stroke="none"/><text dominant-baseline="text-before-edge" fill="#000000" font-family="Arial" font-size="13px" font-style="normal" font-weight="normal" stroke="none" text-anchor="middle" text-decoration="undefined" transform="matrix(1 0 0 1 -246 -246)" x="1416" y="437">StateManager gives control to one of views</text></g></g><g><rect fill="#C0C0C0" fill-opacity="0.2" height="80" stroke="none" transform="matrix(1 0 0 1 -246 -246)" width="232" x="295" y="319"/></g><g><rect fill="#ffffff" height="80" stroke="none" transform="matrix(1 0 0 1 -246 -246)" width="232" x="288" y="312"/></g><g><path d=" M 42 66 L 274 66 L 274 146 L 42 146 L 42 66 Z Z" fill="none" paint-order="fill stroke markers" stroke="#000000" stroke-dasharray="" stroke-miterlimit="10"/></g><g><path d=" M 42 91 L 274 91" fill="none" paint-order="fill stroke markers" stroke="#000000" stroke-dasharray="" stroke-miterlimit="10"/></g><g><path d=" M 42 101 L 274 101" fill="none" paint-order="fill stroke markers" stroke="#000000" stroke-dasharray="" stroke-miterlimit="10"/></g><g><g><path fill="none" stroke="none"/><text dominant-baseline="central" fill="#000000" font-family="Arial" font-size="13px" font-style="normal" font-weight="bold" stroke="none" text-anchor="middle" text-decoration="undefined" transform="matrix(1 0 0 1 -246 -246)" x="404.5" y="325.5">MazeFileManager</text></g></g><g><g><path fill="none" stroke="none"/><text dominant-baseline="central" fill="#000000" font-family="Arial" font-size="13px" font-style="normal" font-weight="normal" stroke="none" text-anchor="start" text-decoration="undefined" transform="matrix(1 0 0 1 -246 -246)" x="293" y="358.5">+readFromFile(filename): Maze</text></g></g><g><g><path fill="none" stroke="none"/><text dominant-baseline="central" fill="#000000" font-family="Arial" font-size="13px" font-style="normal" font-weight="normal" stroke="none" text-anchor="start" text-decoration="undefined" transform="matrix(1 0 0 1 -246 -246)" x="293" y="373.5">+writeToFile(filename, maze)</text></g></g><g><path d=" M 714 266 L 871 266 L 881 276 L 881 342 L 714 342 L 714 266" fill="#ffffff" paint-order="stroke fill markers" stroke="none"/></g><g><path d=" M 714 266 L 871 266 L 881 276 L 881 342 L 714 342 L 714 266 L 714 266" fill="none" paint-order="fill stroke markers" stroke="#000000" stroke-dasharray="" stroke-miterlimit="10"/></g><g><path d=" M 871 266 L 871 276 L 881 276 L 871 266" fill="none" paint-order="fill stroke markers" stroke="#000000" stroke-dasharray="" stroke-miterlimit="10"/></g><g><g><path fill="none" stroke="none"/><text dominant-baseline="text-before-edge" fill="#000000" font-family="Arial" font-size="13px" font-style="normal" font-weight="normal" stroke="none" text-anchor="start" text-decoration="undefined" transform="matrix(1 0 0 1 -246 -246)" x="965" y="517">Classes from ViewsPart</text><text dominant-baseline="text-before-edge" fill="#000000" font-family="Arial" font-size="13px" font-style="normal" font-weight="normal" stroke="none" text-anchor="start" text-decoration="undefined" transform="matrix(1 0 0 1 -246 -246)" x="965" y="530">use Maze Management</text><text dominant-baseline="text-before-edge" fill="#000000" font-family="Arial" font-size="13px" font-style="normal" font-weight="normal" stroke="none" text-anchor="start" text-decoration="undefined" transform="matrix(1 0 0 1 -246 -246)" x="965" y="543">part to interact with maze</text><text dominant-baseline="text-before-edge" fill="#000000" font-family="Arial" font-size="13px" font-style="normal" font-weight="normal" stroke="none" text-anchor="start" text-decoration="undefined" transform="matrix(1 0 0 1 -246 -246)" x="965" y="556">generation, loading, saving</text><text dominant-baseline="text-before-edge" fill="#000000" font-family="Arial" font-size="13px" font-style="normal" font-weight="normal" stroke="none" text-anchor="start" text-decoration="undefined" transform="matrix(1 0 0 1 -246 -246)" x="965" y="569">and solving</text></g></g></g></svg>